<svg width="1100" height="230" viewBox="0 0 1100 230" xmlns="http://www.w3.org/2000/svg">
 <desc>Created with Snap</desc>
 <defs>
  <linearGradient x1="0" y1="0.5" x2="1" y2="0.5" id="linearGradientSk6ezt3szet">
   <stop offset="0%" stop-color="#3f70d1"/>
   <stop offset="100%" stop-color="#3f70d1"/>
  </linearGradient>
  <linearGradient x1="0" y1="0.5" x2="1" y2="0.5" id="linearGradientSk6ezt3szez">
   <stop offset="0%" stop-color="#CCCCCC"/>
   <stop offset="100%" stop-color="#CCCCCC" />
  </linearGradient>
  <linearGradient x1="0" y1="0.5" x2="1" y2="0.5" id="linearGradientSk6ezt3szfh">
   <stop offset="0%" stop-color="#1890ff"/>
   <stop offset="100%" stop-color="#1890ff"/>
  </linearGradient>
 </defs>
 <g>
  <title>background</title>
  <rect fill="none" id="canvas_background" height="232" width="1102" y="-1" x="-1"/>
 </g>
 <g>
  <title>Layer 1</title>
  <g id="svg_1" transform="matrix(3.6417999999999995,0,0,3.6417999999999995,316.0853759643555,157.99862017822267) ">
   <svg width="66.570001" height="52.423" viewBox="17.150999999999993,15.834000000000003,66.57000100944353,52.422999999999995" id="svg_2" x="-87.305071" y="-42.5614">
    <desc>Created with Snap</desc>
    <g id="svg_6"/>
    <g id="svg_5"/>
    <g id="svg_3">
     <path fill="url('#linearGradientSk6ezt3szez')" d="m76.568,42.512c0.57,-1.314 0.868,-2.735 0.868,-4.176c0,-3.724 -2.01,-7.203 -5.249,-9.083c-2.561,-1.48 -5.708,-1.803 -8.492,-0.897c-3.438,-4.679 -8.961,-7.522 -14.8,-7.522c-3.214,0 -6.39,0.857 -9.186,2.478c-1.875,1.086 -3.521,2.477 -4.908,4.14c-2.075,0.127 -4.107,0.74 -5.923,1.792c-4.149,2.404 -6.727,6.866 -6.727,11.645c0,4.778 2.578,9.238 6.727,11.64c0.788,0.457 1.639,0.833 2.54,1.125c0.921,2.873 2.549,5.484 4.753,7.609c0.795,0.766 2.062,0.744 2.828,-0.051c0.767,-0.796 0.744,-2.062 -0.052,-2.828c-1.952,-1.882 -3.326,-4.247 -3.974,-6.841c-0.182,-0.727 -0.755,-1.292 -1.485,-1.462c-0.952,-0.223 -1.828,-0.564 -2.606,-1.014c-2.918,-1.689 -4.731,-4.823 -4.731,-8.178c0,-3.357 1.813,-6.493 4.731,-8.184c1.442,-0.835 3.077,-1.277 4.635,-1.28c0.049,0.004 0.181,0.013 0.229,0.013c0.679,0.036 1.251,-0.288 1.636,-0.803c1.181,-1.581 2.638,-2.88 4.332,-3.862c2.188,-1.268 4.67,-1.938 7.18,-1.938c5.098,0 9.708,2.628 12.333,7.03c0.546,0.917 1.715,1.243 2.66,0.74c1.945,-1.038 4.366,-1.003 6.296,0.111c2.007,1.164 3.253,3.318 3.253,5.621c0,1.171 -0.318,2.321 -0.92,3.327c-0.427,0.715 -0.367,1.62 0.151,2.271c1.344,1.69 2.054,3.717 2.054,5.862c0,3.357 -1.813,6.493 -4.733,8.183c-1.442,0.836 -3.076,1.277 -4.725,1.277c-0.396,0 -0.803,-0.029 -1.24,-0.09c-1.09,-0.15 -2.104,0.613 -2.255,1.708s0.614,2.104 1.708,2.255c0.621,0.085 1.206,0.127 1.787,0.127c2.352,0 4.68,-0.628 6.729,-1.815c4.15,-2.402 6.729,-6.864 6.729,-11.645c0.001,-2.619 -0.741,-5.112 -2.153,-7.285z" id="svg_4"/>
    </g>
   </svg>
  </g>
  <g class="svg-clip svg-visible" transform="matrix(3.6418,0,0,3.6418,360.0155,405.1946) " id="svg_20">
   <rect x="-80.657108" y="-78.11354" width="28" height="29" fill="none" class="svg-hitbox" id="svg_21"/>
   <svg width="28.9995" height="29.414" viewBox="35.89425,52.256000000000014,28.999500000000012,29.413999999999987" id="svg_7" x="-80.657108" y="-78.11354">
    <desc>Created with Snap</desc>
    <g id="svg_11"/>
    <g id="svg_10"/>
    <g id="svg_8">
     <path fill="url('#linearGradientSk6ezt3szet')" d="m51.77,57.843c-0.093,-0.093 -0.196,-0.177 -0.307,-0.251c-0.047,-0.03 -0.097,-0.052 -0.146,-0.078c-0.065,-0.037 -0.129,-0.076 -0.198,-0.105c-0.064,-0.025 -0.13,-0.041 -0.196,-0.061c-0.06,-0.018 -0.116,-0.04 -0.178,-0.053c-0.126,-0.024 -0.255,-0.038 -0.384,-0.038c-0.002,0 -0.004,-0.001 -0.007,-0.001l0,0c-0.132,0 -0.263,0.014 -0.392,0.039c-0.057,0.012 -0.109,0.033 -0.164,0.049c-0.07,0.021 -0.142,0.037 -0.21,0.065c-0.064,0.026 -0.123,0.063 -0.183,0.097c-0.054,0.029 -0.109,0.053 -0.161,0.087c-0.11,0.073 -0.213,0.157 -0.306,0.25l-7.458,7.458c-0.781,0.781 -0.781,2.047 0,2.828c0.39,0.391 0.902,0.586 1.414,0.586s1.024,-0.195 1.414,-0.586l4.045,-4.045l0,10.586c0,1.104 0.896,2 2,2s2,-0.896 2,-2l0,-10.586l4.127,4.127c0.391,0.391 0.902,0.586 1.414,0.586s1.023,-0.195 1.414,-0.586c0.781,-0.781 0.781,-2.047 0,-2.828l-7.538,-7.54z" id="svg_9"/>
    </g>
   </svg>
  </g>
  <g class="svg-text svg-visible" transform="matrix(1.041763300517977,0,0,1.2066012399055477,965.0649864010077,397.23788664311166) " id="svg_27">
   <path fill="none" d="m-679.704806,-195.921025c379.95,-1 419.95,-1 799.9,0" id="svg_28"/>
   <path d="m-619.104806,-206.396015l-6.2,-15l-32.5,0l-6.2,15l-16.6,0l31.2,-70l16,0l31.3,70l-17,0zm-33.5,-27.3l22.2,0l-11.1,-26.8l-11.1,26.8zm82.2,28.1q-8.6,0 -15.45,-3.55q-6.85,-3.55 -10.7,-9.85q-3.85,-6.3 -3.85,-14.3l0,0q0,-8 3.85,-14.3q3.85,-6.3 10.7,-9.85q6.85,-3.55 15.45,-3.55l0,0q8.5,0 14.85,3.55q6.35,3.55 9.25,10.15l0,0l-12.1,6.5q-4.2,-7.4 -12.1,-7.4l0,0q-6.1,0 -10.1,4q-4,4 -4,10.9l0,0q0,6.9 4,10.9q4,4 10.1,4l0,0q8,0 12.1,-7.4l0,0l12.1,6.6q-2.9,6.4 -9.25,10q-6.35,3.6 -14.85,3.6l0,0zm54.8,-55.4q12.5,0 19.2,5.95q6.7,5.95 6.7,17.95l0,0l0,30.7l-14.6,0l0,-6.7q-4.4,7.5 -16.4,7.5l0,0q-6.2,0 -10.75,-2.1q-4.55,-2.1 -6.95,-5.8q-2.4,-3.7 -2.4,-8.4l0,0q0,-7.5 5.65,-11.8q5.65,-4.3 17.45,-4.3l0,0l12.4,0q0,-5.1 -3.1,-7.85q-3.1,-2.75 -9.3,-2.75l0,0q-4.3,0 -8.45,1.35q-4.15,1.35 -7.05,3.65l0,0l-5.6,-10.9q4.4,-3.1 10.55,-4.8q6.15,-1.7 12.65,-1.7l0,0zm-1.2,44.9q4,0 7.1,-1.85q3.1,-1.85 4.4,-5.45l0,0l0,-5.5l-10.7,0q-9.6,0 -9.6,6.3l0,0q0,3 2.35,4.75q2.35,1.75 6.45,1.75l0,0zm81,-64.5l15.6,0l0,74.2l-14.9,0l0,-6.2q-5.8,7 -16.8,7l0,0q-7.6,0 -13.75,-3.4q-6.15,-3.4 -9.65,-9.7q-3.5,-6.3 -3.5,-14.6l0,0q0,-8.3 3.5,-14.6q3.5,-6.3 9.65,-9.7q6.15,-3.4 13.75,-3.4l0,0q10.3,0 16.1,6.5l0,0l0,-26.1zm-13.4,62.2q5.9,0 9.8,-4.05q3.9,-4.05 3.9,-10.85l0,0q0,-6.8 -3.9,-10.85q-3.9,-4.05 -9.8,-4.05l0,0q-6,0 -9.9,4.05q-3.9,4.05 -3.9,10.85l0,0q0,6.8 3.9,10.85q3.9,4.05 9.9,4.05l0,0zm96.1,-14.7q0,0.3 -0.3,4.2l0,0l-40.7,0q1.1,5 5.2,7.9q4.1,2.9 10.2,2.9l0,0q4.2,0 7.45,-1.25q3.25,-1.25 6.05,-3.95l0,0l8.3,9q-7.6,8.7 -22.2,8.7l0,0q-9.1,0 -16.1,-3.55q-7,-3.55 -10.8,-9.85q-3.8,-6.3 -3.8,-14.3l0,0q0,-7.9 3.75,-14.25q3.75,-6.35 10.3,-9.9q6.55,-3.55 14.65,-3.55l0,0q7.9,0 14.3,3.4q6.4,3.4 10.05,9.75q3.65,6.35 3.65,14.75l0,0zm-27.9,-16.1q-5.3,0 -8.9,3q-3.6,3 -4.4,8.2l0,0l26.5,0q-0.8,-5.1 -4.4,-8.15q-3.6,-3.05 -8.8,-3.05l0,0zm107.2,-11.8q10.1,0 16.05,5.95q5.95,5.95 5.95,17.85l0,0l0,30.8l-15.6,0l0,-28.4q0,-6.4 -2.65,-9.55q-2.65,-3.15 -7.55,-3.15l0,0q-5.5,0 -8.7,3.55q-3.2,3.55 -3.2,10.55l0,0l0,27l-15.6,0l0,-28.4q0,-12.7 -10.2,-12.7l0,0q-5.4,0 -8.6,3.55q-3.2,3.55 -3.2,10.55l0,0l0,27l-15.6,0l0,-53.8l14.9,0l0,6.2q3,-3.4 7.35,-5.2q4.35,-1.8 9.55,-1.8l0,0q5.7,0 10.3,2.25q4.6,2.25 7.4,6.55l0,0q3.3,-4.2 8.35,-6.5q5.05,-2.3 11.05,-2.3l0,0zm73.4,0.8l15,0l-24.3,57.1q-3.7,9.3 -9.15,13.1q-5.45,3.8 -13.15,3.8l0,0q-4.2,0 -8.3,-1.3q-4.1,-1.3 -6.7,-3.6l0,0l5.7,-11.1q1.8,1.6 4.15,2.5q2.35,0.9 4.65,0.9l0,0q3.2,0 5.2,-1.55q2,-1.55 3.6,-5.15l0,0l0.2,-0.5l-23.3,-54.2l16.1,0l15.1,36.5l15.2,-36.5zm55.6,55q-10.7,0 -19.35,-4.65q-8.65,-4.65 -13.6,-12.9q-4.95,-8.25 -4.95,-18.65l0,0q0,-10.4 4.95,-18.65q4.95,-8.25 13.6,-12.9q8.65,-4.65 19.45,-4.65l0,0q9.1,0 16.45,3.2q7.35,3.2 12.35,9.2l0,0l-10.4,9.6q-7.1,-8.2 -17.6,-8.2l0,0q-6.5,0 -11.6,2.85q-5.1,2.85 -7.95,7.95q-2.85,5.1 -2.85,11.6l0,0q0,6.5 2.85,11.6q2.85,5.1 7.95,7.95q5.1,2.85 11.6,2.85l0,0q10.5,0 17.6,-8.3l0,0l10.4,9.6q-5,6.1 -12.4,9.3q-7.4,3.2 -16.5,3.2l0,0zm38.7,-1.2l0,-74.2l15.6,0l0,74.2l-15.6,0zm55.7,0.8q-8.5,0 -15.25,-3.55q-6.75,-3.55 -10.55,-9.85q-3.8,-6.3 -3.8,-14.3l0,0q0,-8 3.8,-14.3q3.8,-6.3 10.55,-9.85q6.75,-3.55 15.25,-3.55l0,0q8.5,0 15.2,3.55q6.7,3.55 10.5,9.85q3.8,6.3 3.8,14.3l0,0q0,8 -3.8,14.3q-3.8,6.3 -10.5,9.85q-6.7,3.55 -15.2,3.55l0,0zm0,-12.8q6,0 9.85,-4.05q3.85,-4.05 3.85,-10.85l0,0q0,-6.8 -3.85,-10.85q-3.85,-4.05 -9.85,-4.05l0,0q-6,0 -9.9,4.05q-3.9,4.05 -3.9,10.85l0,0q0,6.8 3.9,10.85q3.9,4.05 9.9,4.05l0,0zm78.5,-41.8l15.6,0l0,53.8l-14.8,0l0,-6.4q-3.1,3.5 -7.4,5.35q-4.3,1.85 -9.3,1.85l0,0q-10.6,0 -16.8,-6.1q-6.2,-6.1 -6.2,-18.1l0,0l0,-30.4l15.6,0l0,28.1q0,13 10.9,13l0,0q5.6,0 9,-3.65q3.4,-3.65 3.4,-10.85l0,0l0,-26.6zm69.3,-20.4l15.6,0l0,74.2l-14.9,0l0,-6.2q-5.8,7 -16.8,7l0,0q-7.6,0 -13.75,-3.4q-6.15,-3.4 -9.65,-9.7q-3.5,-6.3 -3.5,-14.6l0,0q0,-8.3 3.5,-14.6q3.5,-6.3 9.65,-9.7q6.15,-3.4 13.75,-3.4l0,0q10.3,0 16.1,6.5l0,0l0,-26.1zm-13.4,62.2q5.9,0 9.8,-4.05q3.9,-4.05 3.9,-10.85l0,0q0,-6.8 -3.9,-10.85q-3.9,-4.05 -9.8,-4.05l0,0q-6,0 -9.9,4.05q-3.9,4.05 -3.9,10.85l0,0q0,6.8 3.9,10.85q3.9,4.05 9.9,4.05l0,0z" fill="url('#linearGradientSk6ezt3szfh')" id="svg_29"/>
   <rect width="0" height="0" x="-279.754806" y="-297.821022" id="svg_30"/>
  </g>
 </g>
</svg>
